<svg width="41" height="38" viewBox="0 0 41 38" fill="none" xmlns="http://www.w3.org/2000/svg">
<path d="M18 2H23L40 34.5H1L18 2Z" fill="#FFDD00"/>
<path d="M5.33203 37.1094H35.6055C38.9258 37.1094 40.9375 34.8047 40.9375 31.8164C40.9375 30.8984 40.6641 29.9414 40.1758 29.082L25.0195 2.67578C24.0039 0.898438 22.2656 0 20.4688 0C18.6719 0 16.9141 0.898438 15.918 2.67578L0.761719 29.082C0.234375 29.9609 0 30.8984 0 31.8164C0 34.8047 2.01172 37.1094 5.33203 37.1094ZM5.35156 34.043C3.98438 34.043 3.16406 32.9883 3.16406 31.7969C3.16406 31.4258 3.24219 30.957 3.45703 30.5469L18.5938 4.16016C19.0039 3.4375 19.7461 3.125 20.4688 3.125C21.1914 3.125 21.9141 3.4375 22.3242 4.16016L37.4609 30.5664C37.6758 30.9766 37.7734 31.4258 37.7734 31.7969C37.7734 32.9883 36.9141 34.043 35.5664 34.043H5.35156ZM20.4688 23.9453C21.4062 23.9453 21.9531 23.3984 21.9727 22.3828L22.2461 12.0898C22.2656 11.0938 21.4844 10.3516 20.4492 10.3516C19.3945 10.3516 18.6523 11.0742 18.6719 12.0703L18.9258 22.3828C18.9453 23.3789 19.4922 23.9453 20.4688 23.9453ZM20.4688 30.293C21.6016 30.293 22.5781 29.3945 22.5781 28.2617C22.5781 27.1094 21.6211 26.2305 20.4688 26.2305C19.3164 26.2305 18.3594 27.1289 18.3594 28.2617C18.3594 29.375 19.3359 30.293 20.4688 30.293Z" fill="white"/>
</svg>
