<svg width="24" height="24" viewBox="0 0 24 24" fill="none" xmlns="http://www.w3.org/2000/svg">
    <g clip-path="url(#clip0_201_23)">
        <path
            d="M12 24C5.373 24 0 18.627 0 12C0 5.373 5.373 0 12 0C18.627 0 24 5.373 24 12C24 18.627 18.627 24 12 24Z"
            fill="#FFDD00" />
        <path
            d="M4.38599 9.90961H5.90927L7.20189 13.0616H7.26155L8.55416 9.90961H10.0774V15.0005H8.8803V11.8724H8.83855L7.61352 14.9687H6.84991L5.62488 11.8565H5.58313V15.0005H4.38599V9.90961Z"
            fill="black" />
        <path d="M10.682 10.9099V9.90961H14.9854V10.9099H13.4402V15.0005H12.2272V10.9099H10.682Z"
            fill="black" />
        <path
            d="M18.342 11.437C18.3379 11.3541 18.3162 11.2731 18.2782 11.1993C18.2403 11.1254 18.187 11.0606 18.122 11.009C17.991 10.907 17.805 10.856 17.565 10.856C17.405 10.856 17.273 10.877 17.167 10.919C17.0732 10.9521 16.9907 11.0111 16.929 11.089C16.876 11.1601 16.8472 11.2463 16.847 11.335C16.8427 11.4057 16.8587 11.4761 16.893 11.538C16.927 11.596 16.977 11.648 17.043 11.691C17.108 11.735 17.187 11.774 17.28 11.807C17.373 11.84 17.477 11.869 17.593 11.894L18.03 11.994C18.282 12.048 18.504 12.121 18.697 12.211C18.891 12.301 19.053 12.411 19.185 12.537C19.317 12.663 19.417 12.809 19.485 12.973C19.553 13.137 19.588 13.32 19.589 13.523C19.588 13.846 19.507 14.123 19.345 14.353C19.184 14.583 18.953 14.759 18.652 14.882C18.352 15.005 17.99 15.066 17.567 15.066C17.14 15.066 16.768 15.002 16.452 14.874C16.1525 14.7592 15.8951 14.5558 15.714 14.291C15.539 14.031 15.448 13.703 15.443 13.306H16.62C16.63 13.469 16.674 13.606 16.753 13.716C16.8343 13.8279 16.9461 13.914 17.075 13.964C17.211 14.02 17.37 14.048 17.551 14.048C17.716 14.048 17.857 14.026 17.974 13.981C18.0792 13.9447 18.1726 13.8804 18.244 13.795C18.3062 13.7173 18.3401 13.6206 18.34 13.521C18.3409 13.4307 18.3093 13.343 18.251 13.274C18.1772 13.1948 18.0862 13.1336 17.985 13.095C17.836 13.0352 17.6821 12.9884 17.525 12.955L16.994 12.831C16.554 12.73 16.207 12.566 15.953 12.341C15.699 12.114 15.573 11.808 15.574 11.421C15.5666 11.1245 15.6557 10.8335 15.828 10.592C15.999 10.356 16.235 10.171 16.536 10.039C16.8627 9.90138 17.2146 9.83359 17.569 9.84002C17.963 9.84002 18.306 9.90702 18.597 10.04C18.887 10.174 19.114 10.36 19.274 10.6C19.434 10.84 19.517 11.119 19.52 11.437H18.342Z"
            fill="black" />
    </g>
    <defs>
        <clipPath id="clip0_201_23">
            <rect width="24" height="24" fill="white" />
        </clipPath>
    </defs>
</svg>
    