<svg width="242" height="201" viewBox="0 0 242 201" fill="none" xmlns="http://www.w3.org/2000/svg">
<path d="M241.1 100.31C241.1 123.429 232.946 145.807 218.074 163.508C203.202 181.208 182.563 193.096 159.79 197.08C143.46 200.79 108.05 201.15 89.79 198.24C125.41 201.31 161.15 183.43 180.16 153.37C191.79 134.95 198.1 112.43 194.78 90.37C192.472 78.2905 186.025 67.3938 176.548 59.5561C167.071 51.7183 155.158 47.4302 142.86 47.43C86.62 48.02 69.86 123.5 120.17 148.03C102.44 156.79 79.06 154.03 63.86 141.03C30.86 114.03 45.19 61.55 69.91 34.49C93.58 7.69 132.79 -4.09 167.41 5.17C188.499 10.6216 207.179 22.9238 220.517 40.1443C233.855 57.3649 241.095 78.5281 241.1 100.31Z" fill="#006D99"/>
<path d="M195.72 100.31C195.724 113.211 193.186 125.986 188.251 137.906C183.316 149.825 176.081 160.656 166.958 169.778C157.836 178.9 147.006 186.136 135.086 191.071C123.166 196.006 110.391 198.544 97.4904 198.54C-22.6196 196 -36.1596 25.0901 81.5704 3.37005C99.3904 -1.56995 153.29 -1.16995 167.41 5.17005C132.79 -4.08995 93.5804 7.68005 69.9204 34.5401C45.2004 61.5401 30.8604 114.11 63.8704 141.08C73.3288 148.898 85.2191 153.17 97.4904 153.16C153.73 152.57 170.54 77.0901 120.18 52.5601C137.91 43.8001 161.29 46.5601 176.5 59.5601C182.507 64.5178 187.345 70.7413 190.668 77.7857C193.99 84.8301 195.715 92.5214 195.72 100.31Z" fill="#59BEFE"/>
</svg>
