<svg width="221" height="79" viewBox="0 0 221 79" fill="none" xmlns="http://www.w3.org/2000/svg">
<g clip-path="url(#clip0_14_370)">
<path d="M108.286 25.744C108.286 25.691 108.286 25.638 108.286 25.585V25.597C108.282 25.646 108.286 25.695 108.286 25.744Z" fill="white"/>
<path d="M120.418 20.098C120.042 17.3099 119.161 14.6138 117.818 12.142C115.136 7.23927 110.791 3.45614 105.566 1.47496C101.239 -0.147511 96.5258 -0.439034 92.0319 0.637802C87.5379 1.71464 83.4687 4.11064 80.347 7.51796C78.1033 5.07081 75.3595 3.13496 72.3017 1.84181C69.2439 0.548661 65.9436 -0.071523 62.625 0.0233311C59.3063 0.118185 56.0469 0.925861 53.0679 2.39156C50.089 3.85725 47.4602 5.94665 45.36 8.51796C42.4095 5.31122 38.7031 2.89426 34.5789 1.4875C30.4546 0.0807478 26.0438 -0.271016 21.7487 0.46431C17.4536 1.19964 13.411 2.99863 9.98957 5.69722C6.56816 8.39581 3.87687 11.9081 2.16117 15.9137C0.445468 19.9193 -0.240024 24.2907 0.167213 28.6292C0.57445 32.9677 2.06145 37.1352 4.49259 40.7515C6.92373 44.3679 10.2216 47.318 14.0855 49.3327C17.9493 51.3475 22.2561 52.3628 26.613 52.286C28.6278 52.2689 30.6341 52.0219 32.593 51.55C33.1695 51.4099 33.734 51.2239 34.281 50.994C33.4862 51.3144 32.6328 51.4637 31.7765 51.4323C30.9202 51.4009 30.08 51.1894 29.3109 50.8116C28.5417 50.4338 27.8608 49.8982 27.3125 49.2397C26.7642 48.5812 26.3607 47.8145 26.1285 46.9897C25.8962 46.1648 25.8404 45.3003 25.9646 44.4524C26.0888 43.6046 26.3902 42.7924 26.8492 42.0688C27.3083 41.3452 27.9146 40.7264 28.6287 40.2528C29.3429 39.7792 30.1488 39.4613 30.994 39.32C30.234 39.42 29.48 39.606 28.673 39.755C25.1275 40.4474 21.4516 39.7323 18.4243 37.7611C15.397 35.79 13.2559 32.7177 12.4548 29.1951C11.6537 25.6726 12.2555 21.9765 14.1326 18.89C16.0097 15.8035 19.0147 13.569 22.511 12.66C25.5408 11.8438 28.758 12.0814 31.635 13.334C34.7003 14.7835 37.2495 17.1352 38.941 20.074C39.367 20.7875 39.731 21.5362 40.029 22.312C40.2654 23.0979 40.5561 23.8664 40.899 24.612C41.4719 25.6613 42.3425 26.5176 43.4011 27.0732C44.4597 27.6288 45.659 27.8588 46.848 27.7342C48.0371 27.6097 49.1627 27.1362 50.0832 26.3733C51.0037 25.6104 51.6779 24.5922 52.021 23.447C52.2277 22.5966 52.3906 21.7361 52.509 20.869C52.8283 19.3534 53.4675 17.9235 54.384 16.675C55.6696 14.9201 57.4469 13.586 59.4911 12.8416C61.5352 12.0973 63.7542 11.9761 65.8673 12.4935C67.9803 13.0108 69.8923 14.1434 71.3614 15.7479C72.8305 17.3524 73.7905 19.3566 74.12 21.507C74.2083 22.9827 74.725 24.4005 75.607 25.587C76.1489 26.2335 76.8193 26.7603 77.5757 27.134C78.332 27.5077 79.1578 27.7201 80.0005 27.7577C80.8433 27.7953 81.6847 27.6573 82.4713 27.3525C83.2579 27.0477 83.9726 26.5827 84.57 25.987C85.62 24.8852 86.2536 23.4521 86.362 21.934C86.7461 19.0881 88.2037 16.4967 90.4363 14.6906C92.669 12.8845 95.5076 12.0002 98.371 12.219C101.177 12.497 103.77 13.8367 105.62 15.9639C107.471 18.091 108.438 20.8449 108.325 23.662C108.3 24.334 108.264 24.962 108.284 25.589C108.306 23.9755 108.963 22.4358 110.112 21.3032C111.262 20.1707 112.811 19.5365 114.424 19.5381C116.038 19.5396 117.586 20.1769 118.733 21.3117C119.88 22.4465 120.534 23.9875 120.553 25.601V25.628C120.573 25.379 120.588 25.128 120.598 24.88C120.675 23.2837 120.615 21.6838 120.418 20.098Z" fill="#FFDD00"/>
<path d="M93.5069 38.945L92.607 41.154C92.5894 41.2207 92.5573 41.2828 92.5128 41.3356C92.4684 41.3884 92.4128 41.4307 92.35 41.4594C92.2873 41.4881 92.2189 41.5025 92.1499 41.5016C92.0809 41.5007 92.0129 41.4844 91.9509 41.454C91.5574 41.3167 91.1438 41.2457 90.7269 41.244C90.3141 41.2342 89.9038 41.3103 89.522 41.4675C89.1402 41.6247 88.7952 41.8595 88.509 42.1571C88.2227 42.4547 88.0015 42.8086 87.8593 43.1963C87.7171 43.5839 87.657 43.9969 87.6829 44.409V52.17C87.6866 52.2299 87.6775 52.2899 87.6562 52.346C87.6349 52.4022 87.602 52.4532 87.5596 52.4956C87.5171 52.538 87.4661 52.571 87.41 52.5922C87.3539 52.6135 87.2938 52.6226 87.2339 52.619H84.19C84.1301 52.6225 84.0701 52.6133 84.0141 52.5919C83.958 52.5706 83.9071 52.5376 83.8647 52.4952C83.8223 52.4528 83.7894 52.4019 83.768 52.3458C83.7467 52.2898 83.7375 52.2299 83.741 52.17V38.437C83.7375 38.3771 83.7467 38.3172 83.768 38.2611C83.7894 38.2051 83.8223 38.1542 83.8647 38.1117C83.9071 38.0693 83.958 38.0364 84.0141 38.0151C84.0701 37.9937 84.1301 37.9845 84.19 37.988H87.0849C87.1442 37.9869 87.2031 37.9978 87.258 38.02C87.313 38.0421 87.363 38.0752 87.4049 38.1171C87.4468 38.159 87.4798 38.2089 87.502 38.2639C87.5242 38.3189 87.535 38.3777 87.534 38.437L87.6529 40.049C87.9842 39.3379 88.5109 38.7356 89.1715 38.3124C89.8321 37.8892 90.5994 37.6626 91.384 37.659C92.1001 37.6548 92.7957 37.8974 93.3539 38.346C93.4509 38.4076 93.5208 38.5038 93.5492 38.6152C93.5777 38.7265 93.5625 38.8445 93.5069 38.945Z" fill="white"/>
<path d="M107.764 38.945L106.864 41.154C106.846 41.2208 106.814 41.2829 106.769 41.3357C106.725 41.3885 106.669 41.4308 106.606 41.4595C106.543 41.4882 106.474 41.5026 106.405 41.5016C106.336 41.5007 106.268 41.4844 106.206 41.454C105.813 41.3169 105.4 41.2459 104.984 41.244C104.571 41.234 104.161 41.31 103.779 41.4672C103.397 41.6243 103.051 41.8591 102.765 42.1567C102.479 42.4543 102.257 42.8082 102.115 43.196C101.972 43.5837 101.912 43.9968 101.938 44.409V52.17C101.942 52.2298 101.933 52.2897 101.912 52.3457C101.891 52.4018 101.858 52.4527 101.816 52.4952C101.773 52.5376 101.723 52.5706 101.667 52.592C101.611 52.6133 101.551 52.6225 101.491 52.619H98.445C98.3851 52.6225 98.3251 52.6133 98.2691 52.592C98.213 52.5706 98.1621 52.5377 98.1197 52.4952C98.0773 52.4528 98.0444 52.4019 98.023 52.3459C98.0017 52.2898 97.9925 52.2299 97.996 52.17V38.437C97.9925 38.3771 98.0017 38.3172 98.023 38.2611C98.0444 38.2051 98.0773 38.1542 98.1197 38.1118C98.1621 38.0693 98.213 38.0364 98.2691 38.0151C98.3251 37.9937 98.3851 37.9845 98.445 37.988H101.34C101.399 37.9869 101.458 37.9978 101.513 38.02C101.568 38.0421 101.618 38.0752 101.66 38.1171C101.702 38.159 101.735 38.209 101.757 38.2639C101.779 38.3189 101.79 38.3778 101.789 38.437L101.909 40.049C102.24 39.338 102.767 38.7359 103.428 38.3127C104.088 37.8896 104.856 37.6629 105.64 37.659C106.356 37.6545 107.052 37.8972 107.61 38.346C107.708 38.4067 107.779 38.503 107.807 38.6146C107.836 38.7262 107.82 38.8446 107.764 38.945Z" fill="white"/>
<path d="M78.2339 38.435V52.166C78.2377 52.2257 78.2287 52.2856 78.2076 52.3417C78.1865 52.3978 78.1538 52.4487 78.1115 52.4911C78.0693 52.5336 78.0185 52.5666 77.9625 52.5879C77.9065 52.6093 77.8467 52.6185 77.7869 52.615H75.0389C74.9797 52.6161 74.9209 52.6052 74.8661 52.583C74.8112 52.5608 74.7614 52.5277 74.7197 52.4858C74.6779 52.4438 74.6451 52.3939 74.6231 52.3389C74.6012 52.284 74.5905 52.2251 74.5919 52.166L74.4729 50.912C73.9392 51.5683 73.2652 52.0966 72.5005 52.4583C71.7358 52.82 70.8998 53.0057 70.0539 53.002C65.9639 53.002 62.9789 49.602 62.9789 45.33C62.9789 41.058 65.9639 37.658 70.0539 37.658C70.9071 37.6716 71.7471 37.8711 72.5153 38.2426C73.2835 38.6141 73.9614 39.1486 74.5019 39.809L74.5919 38.436C74.5904 38.3768 74.6009 38.3179 74.6228 38.2628C74.6447 38.2078 74.6776 38.1578 74.7194 38.1158C74.7611 38.0739 74.811 38.0408 74.8659 38.0187C74.9208 37.9965 74.9797 37.9857 75.0389 37.987H77.7869C77.8466 37.9833 77.9065 37.9924 77.9624 38.0136C78.0184 38.0348 78.0692 38.0677 78.1115 38.1101C78.1538 38.1525 78.1865 38.2034 78.2076 38.2594C78.2287 38.3154 78.2377 38.3752 78.2339 38.435ZM74.2639 45.3C74.2894 44.7875 74.2127 44.2751 74.0384 43.7925C73.864 43.3099 73.5954 42.8668 73.2482 42.489C72.901 42.1112 72.4821 41.8062 72.016 41.5918C71.5498 41.3774 71.0457 41.2578 70.5329 41.24C69.4976 41.3124 68.5283 41.7748 67.8205 42.5338C67.1127 43.2929 66.7191 44.2921 66.7191 45.33C66.7191 46.3678 67.1127 47.367 67.8205 48.1261C68.5283 48.8851 69.4976 49.3475 70.5329 49.42C71.0487 49.3954 71.5546 49.2692 72.0215 49.0486C72.4885 48.8281 72.9073 48.5175 73.2539 48.1347C73.6006 47.7519 73.8682 47.3045 74.0415 46.818C74.2148 46.3316 74.2904 45.8157 74.2639 45.3Z" fill="white"/>
<path d="M112.895 37.988H115.941C116.001 37.9843 116.061 37.9934 116.117 38.0147C116.173 38.036 116.224 38.0689 116.267 38.1114C116.309 38.1538 116.342 38.2048 116.363 38.2609C116.384 38.3171 116.394 38.3771 116.39 38.437V52.168C116.393 52.2278 116.384 52.2878 116.363 52.3438C116.342 52.3999 116.309 52.4508 116.266 52.4932C116.224 52.5356 116.173 52.5686 116.117 52.5899C116.061 52.6112 116.001 52.6205 115.941 52.617H112.895C112.835 52.6205 112.775 52.6113 112.719 52.5899C112.663 52.5686 112.613 52.5356 112.57 52.4932C112.528 52.4507 112.495 52.3998 112.474 52.3437C112.453 52.2877 112.444 52.2277 112.448 52.168V38.437C112.444 38.3772 112.453 38.3172 112.474 38.2611C112.495 38.2049 112.528 38.1539 112.57 38.1115C112.612 38.069 112.663 38.036 112.719 38.0147C112.775 37.9934 112.835 37.9843 112.895 37.988Z" fill="white"/>
<path d="M132.315 48.524C132.315 51.36 129.415 53.002 126.733 53.002C125.683 53.0078 124.643 52.7929 123.682 52.3712C122.72 51.9495 121.858 51.3303 121.151 50.554C121.078 50.4712 121.037 50.3645 121.037 50.254C121.037 50.1435 121.078 50.0367 121.151 49.9539L122.314 48.313C122.494 48.074 122.702 48.1349 122.97 48.3419C124.036 49.1198 125.297 49.5852 126.613 49.686C127.567 49.686 128.493 49.386 128.493 48.462C128.493 46.133 121.418 47.03 121.418 42.104C121.418 39.297 123.866 37.656 126.493 37.656C127.438 37.6465 128.374 37.8386 129.238 38.2195C130.103 38.6005 130.876 39.1614 131.507 39.865C131.583 39.9536 131.622 40.0678 131.616 40.1842C131.611 40.3006 131.561 40.4107 131.478 40.492L130.344 41.985C130.164 42.224 129.956 42.165 129.686 41.956C128.878 41.278 127.873 40.8801 126.82 40.822C125.895 40.822 125.208 41.329 125.208 42.076C125.209 44.464 132.315 43.151 132.315 48.524Z" fill="white"/>
<path d="M56.043 48.045C56.0825 47.996 56.1324 47.9564 56.1892 47.9292C56.2459 47.902 56.308 47.8879 56.371 47.8879C56.4339 47.8879 56.4961 47.902 56.5528 47.9292C56.6096 47.9564 56.6595 47.996 56.699 48.045L58.521 49.777C58.5652 49.8153 58.6011 49.8623 58.6267 49.9149C58.6522 49.9676 58.6667 50.0248 58.6694 50.0833C58.6722 50.1417 58.663 50.2001 58.6424 50.2549C58.6219 50.3097 58.5905 50.3597 58.55 50.402C57.6988 51.3277 56.6311 52.0277 55.4428 52.4393C54.2544 52.8509 52.9825 52.9611 51.741 52.7601C50.4996 52.5592 49.3274 52.0533 48.3296 51.2878C47.3318 50.5223 46.5396 49.5212 46.0239 48.3741C45.5082 47.2271 45.2852 45.9701 45.375 44.7157C45.4647 43.4613 45.8643 42.2488 46.5379 41.1868C47.2116 40.1248 48.1382 39.2466 49.2348 38.6309C50.3314 38.0152 51.5636 37.6813 52.821 37.659C53.8928 37.6601 54.9517 37.893 55.9251 38.3418C56.8984 38.7906 57.7632 39.4446 58.46 40.259C58.5005 40.3014 58.532 40.3517 58.5525 40.4066C58.5731 40.4616 58.5823 40.5201 58.5796 40.5787C58.5769 40.6373 58.5623 40.6947 58.5368 40.7476C58.5112 40.8004 58.4753 40.8475 58.431 40.886L56.609 42.647C56.401 42.857 56.192 42.827 55.953 42.618C55.5581 42.208 55.0856 41.8807 54.563 41.6551C54.0404 41.4295 53.4782 41.3102 52.909 41.304C51.8895 41.3759 50.9351 41.8316 50.2383 42.5793C49.5415 43.3269 49.154 44.311 49.154 45.333C49.154 46.355 49.5415 47.3391 50.2383 48.0868C50.9351 48.8344 51.8895 49.2901 52.909 49.362C53.4926 49.3613 54.0703 49.2445 54.6083 49.0184C55.1464 48.7923 55.6341 48.4614 56.043 48.045Z" fill="white"/>
<path d="M64.5439 66.989V73.651C64.5468 73.6987 64.5396 73.7466 64.5226 73.7913C64.5056 73.8361 64.4794 73.8768 64.4455 73.9106C64.4117 73.9445 64.371 73.9707 64.3263 73.9877C64.2815 74.0046 64.2337 74.0119 64.1859 74.009H61.7509C61.7031 74.0119 61.6553 74.0046 61.6105 73.9877C61.5658 73.9707 61.5251 73.9445 61.4913 73.9106C61.4574 73.8768 61.4312 73.8361 61.4142 73.7913C61.3972 73.7466 61.39 73.6987 61.3929 73.651V67.561C61.3929 65.628 60.3409 64.961 59.2189 64.961C58.5821 64.9292 57.9578 65.1453 57.4768 65.5638C56.9958 65.9824 56.6955 66.5709 56.6389 67.206V73.654C56.6418 73.7016 56.6346 73.7492 56.6178 73.7939C56.6009 73.8385 56.5748 73.879 56.5412 73.9128C56.5076 73.9466 56.4672 73.973 56.4227 73.99C56.3781 74.0071 56.3305 74.0146 56.2829 74.012H53.8459C53.7981 74.0149 53.7503 74.0076 53.7055 73.9907C53.6608 73.9737 53.6201 73.9474 53.5863 73.9136C53.5524 73.8798 53.5262 73.8391 53.5092 73.7944C53.4922 73.7496 53.485 73.7017 53.4879 73.654V67.564C53.4879 65.631 52.4379 64.964 51.2879 64.964C50.6589 64.9884 50.058 65.2305 49.5878 65.6489C49.1175 66.0673 48.8072 66.6361 48.7099 67.258V73.658C48.7127 73.7057 48.7053 73.7535 48.6883 73.7982C48.6713 73.8429 48.645 73.8834 48.6112 73.9172C48.5774 73.951 48.5368 73.9773 48.4921 73.9944C48.4474 74.0114 48.3997 74.0187 48.3519 74.016H45.9149C45.8671 74.0189 45.8193 74.0116 45.7745 73.9947C45.7298 73.9777 45.6891 73.9514 45.6553 73.9176C45.6214 73.8838 45.5952 73.8431 45.5782 73.7984C45.5612 73.7536 45.554 73.7058 45.5569 73.658V62.666C45.554 62.6182 45.5612 62.5704 45.5782 62.5256C45.5952 62.4808 45.6214 62.4402 45.6553 62.4063C45.6891 62.3725 45.7298 62.3462 45.7745 62.3293C45.8193 62.3123 45.8671 62.3051 45.9149 62.308H48.2559C48.3032 62.307 48.3502 62.3156 48.394 62.3333C48.4379 62.3509 48.4777 62.3773 48.5112 62.4107C48.5446 62.4441 48.5709 62.484 48.5886 62.5279C48.6062 62.5717 48.6149 62.6187 48.6139 62.666L48.7139 64.194V64.218C49.0838 63.5614 49.6211 63.0145 50.271 62.633C50.9209 62.2515 51.6603 62.0489 52.4139 62.046C53.1589 62.0295 53.8933 62.2249 54.5317 62.6094C55.17 62.9939 55.6861 63.5517 56.0199 64.218C56.4653 63.5324 57.0792 62.9727 57.8028 62.5924C58.5265 62.2121 59.3357 62.0239 60.1529 62.046C62.7049 62.045 64.5439 63.861 64.5439 66.989Z" fill="white"/>
<path d="M78.699 69.3269H71.199C71.3466 70.0798 71.7732 70.7491 72.3932 71.201C73.0132 71.6528 73.781 71.8539 74.5429 71.7639C75.438 71.7771 76.312 71.4917 77.027 70.9529C77.242 70.8079 77.3849 70.808 77.5519 70.976L78.6039 72.002C78.7699 72.169 78.7699 72.337 78.5779 72.5269C78.0081 73.0983 77.3305 73.5508 76.5845 73.8584C75.8385 74.166 75.0389 74.3225 74.2319 74.3189C72.6236 74.3231 71.0778 73.6959 69.9269 72.5724C68.7761 71.4488 68.112 69.9185 68.0776 68.3105C68.0431 66.7025 68.641 65.1452 69.7427 63.9733C70.8444 62.8015 72.3619 62.1087 73.9689 62.0439C74.7264 62.0432 75.476 62.197 76.1719 62.4959C76.8679 62.7949 77.4955 63.2327 78.0164 63.7825C78.5373 64.3324 78.9406 64.9827 79.2015 65.6938C79.4624 66.4049 79.5756 67.1617 79.5339 67.9179C79.5349 68.8519 79.416 69.3269 78.699 69.3269ZM71.1539 67.274H76.742C76.7047 66.5747 76.3973 65.9173 75.8846 65.4404C75.3719 64.9636 74.694 64.7045 73.9939 64.718C73.2847 64.7052 72.5971 64.962 72.0699 65.4366C71.5428 65.9112 71.2154 66.5683 71.1539 67.2749V67.274Z" fill="white"/>
<path d="M89.0299 62.666V64.529C89.0328 64.5767 89.0256 64.6246 89.0086 64.6694C88.9916 64.7141 88.9654 64.7547 88.9315 64.7886C88.8977 64.8224 88.857 64.8487 88.8123 64.8657C88.7675 64.8826 88.7197 64.8899 88.6719 64.887H86.9989V73.65C87.0018 73.6975 86.9946 73.7452 86.9777 73.7898C86.9609 73.8345 86.9348 73.875 86.9012 73.9088C86.8675 73.9426 86.8272 73.9689 86.7826 73.986C86.7381 74.0031 86.6905 74.0106 86.6429 74.008H84.2059C84.1581 74.0109 84.1103 74.0036 84.0655 73.9867C84.0208 73.9697 83.9801 73.9434 83.9462 73.9096C83.9124 73.8758 83.8861 73.8351 83.8692 73.7903C83.8522 73.7456 83.845 73.6977 83.8479 73.65V64.887H82.1759C82.1281 64.8899 82.0803 64.8826 82.0355 64.8657C81.9908 64.8487 81.9501 64.8224 81.9162 64.7886C81.8824 64.7547 81.8561 64.7141 81.8392 64.6694C81.8222 64.6246 81.815 64.5767 81.8179 64.529V62.666C81.815 62.6182 81.8222 62.5704 81.8392 62.5256C81.8561 62.4808 81.8824 62.4402 81.9162 62.4063C81.9501 62.3725 81.9908 62.3462 82.0355 62.3293C82.0803 62.3123 82.1281 62.3051 82.1759 62.308H83.8469V59.084C83.844 59.0362 83.8512 58.9884 83.8682 58.9436C83.8851 58.8988 83.9114 58.8582 83.9453 58.8243C83.9791 58.7905 84.0197 58.7642 84.0645 58.7473C84.1093 58.7303 84.1571 58.7231 84.2049 58.726H86.6419C86.6895 58.7233 86.7371 58.7308 86.7816 58.7479C86.8262 58.765 86.8666 58.7913 86.9002 58.8251C86.9338 58.8589 86.9599 58.8995 86.9767 58.9441C86.9936 58.9887 87.0008 59.0364 86.9979 59.084V62.308H88.6759C88.7233 62.3056 88.7707 62.3133 88.815 62.3306C88.8593 62.3478 88.8994 62.3741 88.9329 62.4079C88.9663 62.4417 88.9921 62.4821 89.0089 62.5266C89.0256 62.5711 89.0328 62.6186 89.0299 62.666Z" fill="white"/>
<path d="M101.868 63.071L101.151 64.838C101.137 64.8914 101.111 64.9411 101.076 64.9833C101.04 65.0256 100.996 65.0593 100.945 65.0822C100.895 65.1051 100.84 65.1165 100.785 65.1156C100.73 65.1147 100.675 65.1015 100.626 65.077C100.311 64.9684 99.9802 64.912 99.647 64.91C99.3167 64.9018 98.9883 64.9625 98.6826 65.0881C98.377 65.2136 98.1009 65.4014 97.8717 65.6394C97.6425 65.8774 97.4654 66.1605 97.3514 66.4706C97.2375 66.7808 97.1893 67.1112 97.2099 67.441V73.65C97.2129 73.6977 97.2056 73.7454 97.1887 73.7901C97.1718 73.8348 97.1457 73.8754 97.1119 73.9092C97.0782 73.943 97.0377 73.9693 96.993 73.9864C96.9484 74.0034 96.9006 74.0107 96.853 74.008H94.418C94.3702 74.0109 94.3223 74.0037 94.2776 73.9867C94.2328 73.9697 94.1922 73.9435 94.1583 73.9096C94.1245 73.8758 94.0982 73.8351 94.0813 73.7903C94.0643 73.7456 94.057 73.6977 94.06 73.65V62.666C94.057 62.6182 94.0643 62.5704 94.0813 62.5256C94.0982 62.4808 94.1245 62.4402 94.1583 62.4063C94.1922 62.3725 94.2328 62.3462 94.2776 62.3293C94.3223 62.3123 94.3702 62.3051 94.418 62.308H96.7349C96.7821 62.3072 96.829 62.3159 96.8728 62.3336C96.9165 62.3513 96.9563 62.3777 96.9896 62.4111C97.0229 62.4445 97.0491 62.4843 97.0667 62.5281C97.0843 62.5719 97.0929 62.6188 97.092 62.666L97.1919 63.955C97.4575 63.3866 97.8791 62.9053 98.4075 62.5672C98.936 62.229 99.5496 62.0479 100.177 62.045C100.75 62.0409 101.307 62.2344 101.754 62.593C101.831 62.6429 101.885 62.7203 101.906 62.8092C101.928 62.8982 101.914 62.9919 101.868 63.071Z" fill="white"/>
<path d="M104.208 68.181C104.222 66.9842 104.59 65.8183 105.265 64.8301C105.941 63.8419 106.893 63.0754 108.003 62.6273C109.113 62.1792 110.33 62.0693 111.502 62.3115C112.675 62.5538 113.749 63.1373 114.59 63.9887C115.431 64.8401 116.002 65.9213 116.23 67.0962C116.458 68.2712 116.334 69.4874 115.873 70.5918C115.411 71.6961 114.633 72.6394 113.637 73.3028C112.641 73.9662 111.471 74.3201 110.274 74.32C109.471 74.3207 108.676 74.1619 107.935 73.8527C107.194 73.5436 106.521 73.0902 105.957 72.5191C105.393 71.9479 104.947 71.2703 104.647 70.5256C104.347 69.7808 104.198 68.9839 104.208 68.181ZM113.308 68.181C113.272 67.5889 113.063 67.0204 112.708 66.5455C112.353 66.0705 111.866 65.7099 111.308 65.5082C110.75 65.3064 110.146 65.2723 109.569 65.41C108.992 65.5478 108.468 65.8514 108.061 66.2833C107.655 66.7153 107.384 67.2567 107.281 67.841C107.179 68.4252 107.25 69.0266 107.485 69.5712C107.72 70.1157 108.109 70.5794 108.605 70.9053C109.101 71.2312 109.681 71.4049 110.274 71.405C110.687 71.4007 111.096 71.3129 111.474 71.1469C111.853 70.9809 112.194 70.7402 112.477 70.4391C112.761 70.138 112.98 69.7828 113.123 69.3948C113.266 69.0068 113.329 68.5939 113.308 68.181Z" fill="white"/>
<path d="M132.437 68.1809C132.437 71.5969 130.047 74.3199 126.776 74.3199C126.138 74.3251 125.507 74.1959 124.923 73.9408C124.338 73.6856 123.814 73.3102 123.385 72.839V78.188C123.388 78.2357 123.38 78.2835 123.363 78.3282C123.346 78.3728 123.32 78.4134 123.286 78.4472C123.252 78.481 123.212 78.5073 123.167 78.5243C123.122 78.5413 123.075 78.5487 123.027 78.546H120.59C120.542 78.5489 120.494 78.5416 120.45 78.5247C120.405 78.5077 120.364 78.4814 120.33 78.4476C120.296 78.4137 120.27 78.3731 120.253 78.3283C120.236 78.2836 120.229 78.2357 120.232 78.188V62.666C120.229 62.6182 120.236 62.5703 120.253 62.5256C120.27 62.4808 120.296 62.4402 120.33 62.4063C120.364 62.3725 120.405 62.3462 120.45 62.3293C120.494 62.3123 120.542 62.305 120.59 62.308H122.79C122.837 62.3073 122.884 62.3161 122.928 62.3338C122.971 62.3516 123.011 62.3779 123.045 62.4113C123.078 62.4447 123.104 62.4844 123.122 62.5281C123.14 62.5719 123.149 62.6188 123.148 62.666L123.219 63.7659C123.652 63.238 124.194 62.8106 124.809 62.5136C125.423 62.2166 126.095 62.057 126.778 62.046C130.047 62.045 132.437 64.7679 132.437 68.1809ZM129.403 68.157C129.431 67.7433 129.374 67.3283 129.236 66.9374C129.098 66.5465 128.881 66.1879 128.599 65.8838C128.317 65.5796 127.976 65.3363 127.597 65.1686C127.218 65.001 126.809 64.9126 126.394 64.9089C125.984 64.9237 125.581 65.0197 125.208 65.1914C124.835 65.3631 124.501 65.6071 124.223 65.9093C123.945 66.2114 123.73 66.5657 123.591 66.9515C123.451 67.3373 123.389 67.7471 123.409 68.157C123.387 68.5699 123.447 68.983 123.586 69.3726C123.724 69.7622 123.938 70.1206 124.216 70.4272C124.493 70.7339 124.828 70.9827 125.202 71.1594C125.576 71.3361 125.981 71.4372 126.394 71.4569C126.812 71.4495 127.224 71.3569 127.605 71.1847C127.986 71.0125 128.327 70.7644 128.609 70.4556C128.891 70.1468 129.106 69.7837 129.243 69.3886C129.379 68.9936 129.434 68.5748 129.403 68.158V68.157Z" fill="white"/>
<path d="M135.851 68.181C135.865 66.9842 136.233 65.8183 136.908 64.8301C137.584 63.8419 138.536 63.0754 139.646 62.6273C140.756 62.1792 141.973 62.0693 143.145 62.3115C144.318 62.5538 145.392 63.1373 146.233 63.9887C147.074 64.8401 147.645 65.9213 147.873 67.0962C148.101 68.2712 147.977 69.4874 147.516 70.5918C147.054 71.6961 146.277 72.6394 145.28 73.3028C144.284 73.9662 143.114 74.3201 141.917 74.32C141.114 74.3207 140.319 74.1619 139.578 73.8527C138.837 73.5436 138.165 73.0902 137.6 72.5191C137.036 71.9479 136.59 71.2703 136.29 70.5256C135.99 69.7808 135.841 68.9839 135.851 68.181ZM144.951 68.181C144.915 67.5888 144.706 67.0203 144.351 66.5453C143.995 66.0703 143.509 65.7097 142.951 65.508C142.393 65.3063 141.788 65.2723 141.211 65.4102C140.634 65.5481 140.11 65.8519 139.704 66.284C139.297 66.7162 139.026 67.2578 138.924 67.8422C138.822 68.4265 138.893 69.028 139.128 69.5725C139.364 70.117 139.754 70.5806 140.25 70.9063C140.745 71.2319 141.326 71.4052 141.919 71.405C142.332 71.4001 142.74 71.3119 143.118 71.1457C143.496 70.9795 143.837 70.7387 144.12 70.4377C144.403 70.1366 144.622 69.7816 144.765 69.3938C144.907 69.0061 144.97 68.5936 144.949 68.181H144.951Z" fill="white"/>
<path d="M152.232 56.576H154.666C154.714 56.573 154.762 56.5803 154.807 56.5974C154.851 56.6144 154.892 56.6407 154.926 56.6747C154.96 56.7086 154.986 56.7494 155.003 56.7943C155.02 56.8392 155.027 56.8871 155.024 56.935V73.651C155.027 73.6987 155.02 73.7466 155.003 73.7914C154.986 73.8361 154.959 73.8768 154.926 73.9106C154.892 73.9445 154.851 73.9707 154.806 73.9877C154.762 74.0046 154.714 74.0119 154.666 74.009H152.229C152.181 74.0117 152.133 74.0044 152.089 73.9874C152.044 73.9703 152.004 73.944 151.97 73.9102C151.936 73.8764 151.91 73.8358 151.893 73.7911C151.876 73.7464 151.869 73.6987 151.872 73.651V56.935C151.869 56.8869 151.876 56.8388 151.893 56.7938C151.91 56.7487 151.936 56.7079 151.971 56.6739C152.005 56.6399 152.046 56.6136 152.091 56.5967C152.136 56.5798 152.184 56.5727 152.232 56.576Z" fill="white"/>
<path d="M159.181 58.343C159.183 58.0014 159.286 57.668 159.477 57.3849C159.669 57.1018 159.939 56.8815 160.255 56.7517C160.571 56.622 160.919 56.5887 161.253 56.6558C161.588 56.723 161.896 56.8878 162.138 57.1293C162.379 57.3709 162.544 57.6785 162.611 58.0134C162.678 58.3484 162.645 58.6957 162.515 59.0117C162.385 59.3278 162.165 59.5983 161.882 59.7895C161.599 59.9806 161.266 60.0838 160.924 60.086C160.695 60.0868 160.468 60.0422 160.256 59.9549C160.044 59.8676 159.852 59.7392 159.69 59.5772C159.528 59.4152 159.399 59.2228 159.312 59.0109C159.225 58.7991 159.18 58.5721 159.181 58.343ZM159.706 62.307H162.142C162.19 62.3041 162.238 62.3113 162.282 62.3283C162.327 62.3452 162.368 62.3715 162.402 62.4053C162.435 62.4392 162.462 62.4798 162.479 62.5246C162.496 62.5694 162.503 62.6172 162.5 62.665V73.65C162.503 73.6977 162.496 73.7456 162.479 73.7904C162.462 73.8351 162.435 73.8758 162.402 73.9096C162.368 73.9435 162.327 73.9697 162.282 73.9867C162.238 74.0036 162.19 74.0109 162.142 74.008H159.705C159.657 74.0107 159.609 74.0034 159.565 73.9864C159.52 73.9693 159.48 73.943 159.446 73.9092C159.412 73.8754 159.386 73.8348 159.369 73.7901C159.352 73.7454 159.345 73.6977 159.348 73.65V62.666C159.345 62.6182 159.352 62.5703 159.369 62.5256C159.386 62.4808 159.412 62.4402 159.446 62.4063C159.48 62.3725 159.521 62.3462 159.566 62.3293C159.61 62.3123 159.658 62.305 159.706 62.308V62.307Z" fill="white"/>
<path d="M173.509 62.666V64.529C173.512 64.5766 173.505 64.6244 173.488 64.6691C173.471 64.7138 173.445 64.7544 173.411 64.7882C173.377 64.822 173.337 64.8483 173.292 64.8653C173.247 64.8824 173.2 64.8897 173.152 64.887H171.479V73.65C171.482 73.6977 171.475 73.7456 171.458 73.7903C171.441 73.8351 171.414 73.8758 171.381 73.9096C171.347 73.9434 171.306 73.9697 171.261 73.9867C171.217 74.0036 171.169 74.0109 171.121 74.008H168.686C168.638 74.011 168.59 74.0039 168.545 73.987C168.5 73.9701 168.46 73.9439 168.426 73.91C168.392 73.8761 168.365 73.8354 168.348 73.7906C168.331 73.7458 168.324 73.6978 168.327 73.65V64.887H166.655C166.607 64.8897 166.559 64.8824 166.515 64.8653C166.47 64.8483 166.429 64.822 166.396 64.7882C166.362 64.7544 166.336 64.7139 166.319 64.6692C166.302 64.6245 166.294 64.5767 166.297 64.529V62.666C166.294 62.6182 166.302 62.5705 166.319 62.5258C166.336 62.4811 166.362 62.4405 166.396 62.4067C166.429 62.3729 166.47 62.3466 166.515 62.3296C166.559 62.3126 166.607 62.3052 166.655 62.308H168.325V59.084C168.322 59.0361 168.329 58.9882 168.346 58.9433C168.363 58.8985 168.39 58.8578 168.424 58.8239C168.458 58.7901 168.498 58.7638 168.543 58.7469C168.588 58.73 168.636 58.7229 168.684 58.726H171.125C171.173 58.7231 171.221 58.7303 171.265 58.7473C171.31 58.7642 171.351 58.7905 171.385 58.8243C171.418 58.8582 171.445 58.8988 171.462 58.9436C171.479 58.9884 171.486 59.0362 171.483 59.084V62.308H173.156C173.203 62.3058 173.251 62.3136 173.295 62.3309C173.339 62.3481 173.379 62.3745 173.412 62.4083C173.446 62.4421 173.471 62.4825 173.488 62.5268C173.505 62.5712 173.512 62.6186 173.509 62.666Z" fill="white"/>
<path d="M188.889 62.666V73.651C188.892 73.6987 188.885 73.7466 188.868 73.7914C188.851 73.8361 188.824 73.8768 188.791 73.9106C188.757 73.9445 188.716 73.9707 188.671 73.9877C188.627 74.0046 188.579 74.0119 188.531 74.009H186.331C186.284 74.0099 186.237 74.0013 186.193 73.9837C186.149 73.966 186.109 73.9397 186.076 73.9062C186.042 73.8728 186.016 73.833 185.998 73.7891C185.981 73.7452 185.972 73.6982 185.973 73.651L185.873 72.651C185.446 73.1761 184.907 73.599 184.296 73.8885C183.684 74.178 183.016 74.3268 182.339 74.324C179.066 74.324 176.678 71.601 176.678 68.185C176.678 64.769 179.066 62.048 182.339 62.048C183.021 62.0589 183.693 62.2184 184.307 62.5155C184.922 62.8126 185.464 63.24 185.896 63.768L185.968 62.668C185.967 62.6207 185.976 62.5737 185.993 62.5298C186.011 62.486 186.037 62.4462 186.071 62.4127C186.104 62.3793 186.144 62.353 186.188 62.3353C186.232 62.3176 186.279 62.309 186.326 62.31H188.526C188.574 62.3063 188.622 62.313 188.667 62.3295C188.713 62.346 188.754 62.372 188.788 62.4057C188.823 62.4394 188.849 62.48 188.867 62.5249C188.884 62.5698 188.892 62.6179 188.889 62.666ZM185.714 68.158C185.734 67.7481 185.672 67.3384 185.532 66.9525C185.393 66.5667 185.178 66.2124 184.9 65.9103C184.622 65.6082 184.288 65.3642 183.915 65.1924C183.542 65.0207 183.139 64.9247 182.729 64.91C181.908 64.9774 181.141 65.3513 180.583 65.9575C180.025 66.5637 179.715 67.3578 179.715 68.182C179.715 69.0062 180.025 69.8003 180.583 70.4064C181.141 71.0126 181.908 71.3866 182.729 71.454C183.141 71.4335 183.545 71.332 183.918 71.1552C184.291 70.9784 184.626 70.7299 184.903 70.4238C185.179 70.1177 185.393 69.76 185.532 69.3712C185.67 68.9824 185.731 68.5702 185.71 68.158H185.714Z" fill="white"/>
<path d="M204.22 66.989V73.6509C204.223 73.6986 204.216 73.7464 204.199 73.7911C204.182 73.8358 204.156 73.8764 204.122 73.9102C204.088 73.944 204.048 73.9703 204.003 73.9873C203.958 74.0044 203.911 74.0117 203.863 74.0089H201.427C201.379 74.012 201.331 74.0049 201.286 73.988C201.241 73.9711 201.201 73.9448 201.167 73.911C201.133 73.8771 201.106 73.8364 201.089 73.7916C201.072 73.7468 201.065 73.6988 201.068 73.6509V67.5609C201.068 65.6279 200.018 64.9609 198.868 64.9609C198.239 64.9853 197.638 65.2275 197.168 65.6459C196.697 66.0643 196.387 66.6331 196.29 67.2549V73.6549C196.293 73.7027 196.285 73.7505 196.268 73.7951C196.251 73.8398 196.225 73.8804 196.191 73.9142C196.157 73.948 196.117 73.9743 196.072 73.9913C196.027 74.0083 195.98 74.0157 195.932 74.0129H193.495C193.447 74.0159 193.399 74.0086 193.354 73.9916C193.31 73.9747 193.269 73.9484 193.235 73.9146C193.201 73.8807 193.175 73.8401 193.158 73.7953C193.141 73.7506 193.134 73.7027 193.137 73.6549V62.666C193.134 62.6182 193.141 62.5703 193.158 62.5256C193.175 62.4808 193.201 62.4402 193.235 62.4063C193.269 62.3725 193.31 62.3462 193.354 62.3293C193.399 62.3123 193.447 62.305 193.495 62.308H195.836C195.883 62.307 195.93 62.3156 195.974 62.3333C196.018 62.3509 196.058 62.3772 196.091 62.4107C196.125 62.4441 196.151 62.484 196.169 62.5278C196.186 62.5717 196.195 62.6187 196.194 62.666L196.294 64.1939V64.218C196.664 63.5614 197.201 63.0145 197.851 62.633C198.501 62.2514 199.24 62.0489 199.994 62.046C202.383 62.045 204.22 63.861 204.22 66.989Z" fill="white"/>
<path d="M220.317 62.666V73.651C220.32 73.6987 220.313 73.7466 220.296 73.7914C220.279 73.8361 220.252 73.8768 220.219 73.9106C220.185 73.9445 220.144 73.9707 220.099 73.9877C220.055 74.0046 220.007 74.0119 219.959 74.009H217.759C217.712 74.0099 217.665 74.0013 217.621 73.9837C217.577 73.966 217.537 73.9397 217.504 73.9062C217.47 73.8728 217.444 73.833 217.426 73.7891C217.409 73.7452 217.4 73.6982 217.401 73.651L217.307 72.651C216.88 73.1762 216.341 73.599 215.729 73.8885C215.117 74.178 214.448 74.3268 213.771 74.324C210.5 74.324 208.11 71.601 208.11 68.185C208.11 64.769 210.5 62.048 213.771 62.048C214.454 62.059 215.125 62.2186 215.74 62.5156C216.355 62.8127 216.897 63.24 217.33 63.768L217.401 62.668C217.4 62.6207 217.409 62.5737 217.426 62.5298C217.444 62.486 217.47 62.4462 217.504 62.4127C217.537 62.3793 217.577 62.353 217.621 62.3353C217.665 62.3176 217.712 62.309 217.759 62.31H219.959C220.007 62.3071 220.054 62.3143 220.099 62.3311C220.143 62.348 220.184 62.3741 220.218 62.4077C220.252 62.4413 220.278 62.4817 220.295 62.5262C220.312 62.5707 220.32 62.6184 220.317 62.666ZM217.14 68.158C217.16 67.7481 217.098 67.3384 216.958 66.9525C216.819 66.5667 216.604 66.2124 216.326 65.9103C216.048 65.6082 215.714 65.3642 215.341 65.1924C214.968 65.0207 214.565 64.9247 214.155 64.91C213.336 64.9802 212.572 65.3554 212.016 65.9612C211.46 66.5671 211.151 67.3596 211.151 68.182C211.151 69.0044 211.46 69.7969 212.016 70.4027C212.572 71.0086 213.336 71.3837 214.155 71.454C214.568 71.4343 214.972 71.3333 215.346 71.1568C215.719 70.9803 216.054 70.7319 216.332 70.4257C216.609 70.1195 216.823 69.7615 216.962 69.3724C217.101 68.9832 217.161 68.5706 217.14 68.158Z" fill="white"/>
<path d="M120.553 25.597C120.553 26.8107 120.193 27.9971 119.519 29.0063C118.845 30.0156 117.887 30.8022 116.766 31.2667C115.644 31.7313 114.411 31.8529 113.22 31.6161C112.03 31.3794 110.936 30.795 110.078 29.9368C109.22 29.0786 108.636 27.9852 108.399 26.7948C108.162 25.6045 108.284 24.3706 108.748 23.2494C109.213 22.1281 109.999 21.1698 111.009 20.4957C112.018 19.8215 113.204 19.4618 114.418 19.462C116.045 19.4622 117.605 20.1087 118.756 21.2592C119.906 22.4097 120.553 23.97 120.553 25.597Z" fill="white"/>
<path d="M38.0989 45.328C38.0989 46.5344 37.7412 47.7138 37.0709 48.7169C36.4006 49.7201 35.4479 50.502 34.3333 50.9637C33.2187 51.4253 31.9922 51.5461 30.8089 51.3108C29.6256 51.0754 28.5387 50.4944 27.6856 49.6413C26.8325 48.7882 26.2515 47.7013 26.0161 46.518C25.7808 45.3348 25.9016 44.1083 26.3633 42.9936C26.825 41.879 27.6068 40.9263 28.6099 40.256C29.6131 39.5857 30.7925 39.228 31.9989 39.228C33.6167 39.228 35.1683 39.8706 36.3123 41.0146C37.4562 42.1586 38.0989 43.7102 38.0989 45.328Z" fill="white"/>
</g>
<defs>
<clipPath id="clip0_14_370">
<rect width="220.316" height="78.547" fill="white"/>
</clipPath>
</defs>
</svg>
