<svg xmlns="http://www.w3.org/2000/svg" width="220.316" height="78.547" viewBox="0 0 220.316 78.547"><defs><style>.a{fill:#fff;}.b{fill:#fd0;}</style></defs><g transform="translate(-326.871 -326.088)"><g transform="translate(326.871 326.088)"><path class="a" d="M382.157,339.309c0-.053,0-.106,0-.159l0,.012C382.153,339.211,382.157,339.26,382.157,339.309Z" transform="translate(-273.871 -313.565)"/><path class="b" d="M447.289,346.186a23.132,23.132,0,0,0-2.6-7.956,23.435,23.435,0,0,0-12.252-10.667,23.17,23.17,0,0,0-25.219,6.043,23.146,23.146,0,0,0-34.987,1,26.1,26.1,0,1,0-18.747,43.768,26.489,26.489,0,0,0,5.98-.736,11.144,11.144,0,0,0,1.688-.556,6.1,6.1,0,1,1-3.287-11.674c-.76.1-1.514.286-2.321.435a13.9,13.9,0,0,1-6.162-27.095,13.839,13.839,0,0,1,9.124.674,16.635,16.635,0,0,1,7.306,6.74A14.523,14.523,0,0,1,366.9,348.4a17.72,17.72,0,0,0,.87,2.3,6.059,6.059,0,0,0,11.122-1.165,25.523,25.523,0,0,0,.488-2.578,10.877,10.877,0,0,1,1.875-4.194,10.994,10.994,0,0,1,19.736,4.832,7.6,7.6,0,0,0,1.487,4.08,6.087,6.087,0,0,0,8.963.4,6.551,6.551,0,0,0,1.792-4.053,11.253,11.253,0,0,1,12.009-9.715,11.053,11.053,0,0,1,9.954,11.443c-.025.672-.061,1.3-.041,1.927a6.135,6.135,0,0,1,12.269.012v.027c.02-.249.035-.5.045-.748A27.813,27.813,0,0,0,447.289,346.186Z" transform="translate(-326.871 -326.088)"/></g><g transform="translate(352.771 345.55)"><path d="M379.388,346.6l-.9,2.209a.466.466,0,0,1-.656.3,3.765,3.765,0,0,0-1.224-.21,2.979,2.979,0,0,0-3.044,3.165v7.761a.424.424,0,0,1-.449.449h-3.044a.425.425,0,0,1-.449-.449V346.092a.425.425,0,0,1,.449-.449h2.895a.441.441,0,0,1,.449.449l.119,1.612a4.137,4.137,0,0,1,3.731-2.39,3.116,3.116,0,0,1,1.97.687A.451.451,0,0,1,379.388,346.6Z" transform="translate(-311.781 -327.117)"/><path d="M386.667,346.6l-.9,2.209a.468.468,0,0,1-.658.3,3.762,3.762,0,0,0-1.222-.21,2.98,2.98,0,0,0-3.046,3.165v7.761a.423.423,0,0,1-.447.449h-3.046a.425.425,0,0,1-.449-.449V346.092a.425.425,0,0,1,.449-.449h2.895a.441.441,0,0,1,.449.449l.12,1.612a4.139,4.139,0,0,1,3.731-2.39,3.112,3.112,0,0,1,1.97.687A.447.447,0,0,1,386.667,346.6Z" transform="translate(-304.803 -327.117)"/><path d="M374.279,346.091v13.731a.423.423,0,0,1-.447.449h-2.748a.439.439,0,0,1-.447-.449l-.119-1.254a5.663,5.663,0,0,1-4.419,2.09c-4.09,0-7.075-3.4-7.075-7.672s2.985-7.672,7.075-7.672a5.869,5.869,0,0,1,4.448,2.151l.09-1.373a.438.438,0,0,1,.447-.449h2.748A.422.422,0,0,1,374.279,346.091Zm-3.97,6.865a3.87,3.87,0,0,0-3.731-4.06,4.1,4.1,0,0,0,0,8.18A3.923,3.923,0,0,0,370.309,352.956Z" transform="translate(-321.945 -327.118)"/><path d="M384.727,345.482h3.046a.424.424,0,0,1,.449.449v13.731a.425.425,0,0,1-.449.449h-3.046a.423.423,0,0,1-.447-.449V345.931A.422.422,0,0,1,384.727,345.482Z" transform="translate(-297.732 -326.956)"/><path d="M399.943,356.18c0,2.836-2.9,4.478-5.582,4.478a7.493,7.493,0,0,1-5.582-2.448.453.453,0,0,1,0-.6l1.163-1.641c.18-.239.388-.178.656.029a7.1,7.1,0,0,0,3.643,1.344c.954,0,1.88-.3,1.88-1.224,0-2.329-7.075-1.432-7.075-6.358,0-2.807,2.448-4.448,5.075-4.448a6.644,6.644,0,0,1,5.014,2.209.459.459,0,0,1-.029.627l-1.134,1.493c-.18.239-.388.18-.658-.029a4.876,4.876,0,0,0-2.866-1.134c-.925,0-1.612.507-1.612,1.254C392.837,352.12,399.943,350.807,399.943,356.18Z" transform="translate(-293.528 -327.118)"/><path d="M360.713,355.7a.421.421,0,0,1,.656,0l1.822,1.732a.432.432,0,0,1,.029.625,7.6,7.6,0,1,1-5.729-12.743,7.431,7.431,0,0,1,5.639,2.6.434.434,0,0,1-.029.627l-1.822,1.761c-.208.21-.417.18-.656-.029a4.291,4.291,0,0,0-3.044-1.314,4.039,4.039,0,0,0,0,8.058A4.4,4.4,0,0,0,360.713,355.7Z" transform="translate(-330.57 -327.117)"/><g transform="translate(19.658 37.114)"><path d="M369.116,362.708v6.662a.338.338,0,0,1-.358.358h-2.435a.338.338,0,0,1-.358-.358v-6.09c0-1.933-1.052-2.6-2.174-2.6a2.467,2.467,0,0,0-2.58,2.245v6.448a.338.338,0,0,1-.356.358h-2.437a.338.338,0,0,1-.358-.358v-6.09c0-1.933-1.05-2.6-2.2-2.6a2.716,2.716,0,0,0-2.578,2.294v6.4a.339.339,0,0,1-.358.358h-2.437a.338.338,0,0,1-.358-.358V358.385a.338.338,0,0,1,.358-.358h2.341a.351.351,0,0,1,.358.358l.1,1.528v.024a4.266,4.266,0,0,1,3.7-2.172,3.936,3.936,0,0,1,3.606,2.172,4.775,4.775,0,0,1,4.133-2.172C367.277,357.764,369.116,359.58,369.116,362.708Z" transform="translate(-350.13 -352.295)"/><path d="M372.251,365.046h-7.5a3.044,3.044,0,0,0,3.344,2.437,4.029,4.029,0,0,0,2.484-.811c.215-.145.358-.145.525.023l1.052,1.026c.166.167.166.335-.026.525a6.1,6.1,0,0,1-4.346,1.792,6.14,6.14,0,0,1-.263-12.275,5.568,5.568,0,0,1,5.565,5.874C373.087,364.571,372.968,365.046,372.251,365.046Zm-7.545-2.053h5.588a2.7,2.7,0,0,0-2.748-2.556A2.8,2.8,0,0,0,364.706,362.994Z" transform="translate(-339.11 -352.295)"/><path d="M375.854,360.01v1.863a.338.338,0,0,1-.358.358h-1.673v8.763a.338.338,0,0,1-.356.358H371.03a.338.338,0,0,1-.358-.358v-8.763H369a.338.338,0,0,1-.358-.358V360.01a.338.338,0,0,1,.358-.358h1.671v-3.224a.338.338,0,0,1,.358-.358h2.437a.338.338,0,0,1,.356.358v3.224H375.5A.338.338,0,0,1,375.854,360.01Z" transform="translate(-332.382 -353.92)"/><path d="M382.7,358.79l-.717,1.767a.372.372,0,0,1-.525.239,3.062,3.062,0,0,0-.979-.167,2.383,2.383,0,0,0-2.437,2.531v6.209a.338.338,0,0,1-.357.358H375.25a.338.338,0,0,1-.358-.358V358.385a.338.338,0,0,1,.358-.358h2.317a.351.351,0,0,1,.357.358l.1,1.289a3.312,3.312,0,0,1,2.985-1.91,2.492,2.492,0,0,1,1.577.548A.357.357,0,0,1,382.7,358.79Z" transform="translate(-326.39 -352.295)"/><path d="M380.073,363.9a6.067,6.067,0,1,1,6.066,6.139A6.061,6.061,0,0,1,380.073,363.9Zm9.1,0a3.039,3.039,0,1,0-3.034,3.224A3.07,3.07,0,0,0,389.173,363.9Z" transform="translate(-321.423 -352.295)"/><path d="M400.459,363.9c0,3.416-2.39,6.139-5.661,6.139a4.538,4.538,0,0,1-3.391-1.481v5.349a.339.339,0,0,1-.358.358h-2.437a.338.338,0,0,1-.358-.358V358.385a.338.338,0,0,1,.358-.358h2.2a.353.353,0,0,1,.358.358l.071,1.1a4.7,4.7,0,0,1,3.559-1.72C398.069,357.764,400.459,360.487,400.459,363.9Zm-3.034-.024a3.043,3.043,0,0,0-3.009-3.248,3.1,3.1,0,0,0-2.985,3.248,3.139,3.139,0,0,0,2.985,3.3A3.072,3.072,0,0,0,397.425,363.877Z" transform="translate(-313.58 -352.295)"/><path d="M396.228,363.9a6.067,6.067,0,1,1,6.066,6.139A6.061,6.061,0,0,1,396.228,363.9Zm9.1,0a3.039,3.039,0,1,0-3.032,3.224A3.07,3.07,0,0,0,405.326,363.9Z" transform="translate(-305.935 -352.295)"/><path d="M404.766,354.972H407.2a.338.338,0,0,1,.358.359v16.716a.338.338,0,0,1-.358.358h-2.437a.338.338,0,0,1-.357-.358V355.331A.338.338,0,0,1,404.766,354.972Z" transform="translate(-298.092 -354.972)"/><path d="M408.139,356.727a1.732,1.732,0,1,1,1.743,1.743A1.737,1.737,0,0,1,408.139,356.727Zm.525,3.964H411.1a.338.338,0,0,1,.358.358v10.985a.338.338,0,0,1-.358.358h-2.437a.338.338,0,0,1-.357-.358V361.05A.338.338,0,0,1,408.664,360.692Z" transform="translate(-294.516 -354.96)"/><path d="M418.984,360.01v1.863a.338.338,0,0,1-.357.358h-1.673v8.763a.338.338,0,0,1-.358.358h-2.435a.338.338,0,0,1-.359-.358v-8.763H412.13a.339.339,0,0,1-.358-.358V360.01a.339.339,0,0,1,.358-.358H413.8v-3.224a.338.338,0,0,1,.359-.358H416.6a.338.338,0,0,1,.358.358v3.224h1.673A.338.338,0,0,1,418.984,360.01Z" transform="translate(-291.033 -353.92)"/><path d="M429.279,358.385v10.985a.338.338,0,0,1-.358.358h-2.2a.351.351,0,0,1-.358-.358l-.1-1a4.529,4.529,0,0,1-3.534,1.673c-3.273,0-5.661-2.723-5.661-6.139s2.388-6.137,5.661-6.137a4.694,4.694,0,0,1,3.557,1.72l.072-1.1a.351.351,0,0,1,.358-.358h2.2A.338.338,0,0,1,429.279,358.385Zm-3.175,5.492a3.1,3.1,0,0,0-2.985-3.248,3.283,3.283,0,0,0,0,6.544A3.141,3.141,0,0,0,426.1,363.877Z" transform="translate(-285.948 -352.295)"/><path d="M436.556,362.708v6.662a.338.338,0,0,1-.357.358h-2.436a.338.338,0,0,1-.359-.358v-6.09c0-1.933-1.05-2.6-2.2-2.6a2.716,2.716,0,0,0-2.578,2.294v6.4a.339.339,0,0,1-.358.358h-2.437a.338.338,0,0,1-.358-.358V358.385a.338.338,0,0,1,.358-.358h2.341a.351.351,0,0,1,.358.358l.1,1.528v.024a4.266,4.266,0,0,1,3.7-2.172C434.719,357.764,436.556,359.58,436.556,362.708Z" transform="translate(-277.894 -352.295)"/><path d="M445.325,358.385v10.985a.338.338,0,0,1-.358.358h-2.2a.351.351,0,0,1-.358-.358l-.094-1a4.533,4.533,0,0,1-3.536,1.673c-3.271,0-5.661-2.723-5.661-6.139s2.39-6.137,5.661-6.137a4.7,4.7,0,0,1,3.559,1.72l.071-1.1a.351.351,0,0,1,.358-.358h2.2A.338.338,0,0,1,445.325,358.385Zm-3.177,5.492a3.1,3.1,0,0,0-2.985-3.248,3.284,3.284,0,0,0,0,6.544A3.139,3.139,0,0,0,442.148,363.877Z" transform="translate(-270.566 -352.295)"/></g><path d="M394.424,342.159a6.136,6.136,0,1,1-6.135-6.135A6.136,6.136,0,0,1,394.424,342.159Z" transform="translate(-299.771 -336.024)"/><path d="M352.293,352.215a6.1,6.1,0,1,1-6.1-6.1A6.1,6.1,0,0,1,352.293,352.215Z" transform="translate(-340.094 -326.349)"/></g></g></svg>