<svg width="44" height="46" viewBox="0 0 44 46" fill="none" xmlns="http://www.w3.org/2000/svg">
<g clip-path="url(#clip0_12_11)">
<path d="M2.73438 35.1562C2.73438 36.3672 3.08594 37.3438 3.73047 38.0469V42.9883C3.73047 44.4336 4.84375 45.5664 6.30859 45.5664H8.61328C10.0781 45.5664 11.2109 44.4336 11.2109 42.9883V39.8438C14.4336 40.0586 17.9688 40.1758 21.7383 40.1758C25.5078 40.1758 29.0625 40.0586 32.2852 39.8438V42.9883C32.2852 44.4336 33.3984 45.5664 34.8633 45.5664H37.168C38.6328 45.5664 39.7656 44.4336 39.7656 42.9883V38.0469C40.4102 37.3438 40.7617 36.3672 40.7617 35.1562V5.01953C40.7617 2.5 39.2773 1.05469 36.6211 0.742188C32.5391 0.253906 27.1094 0 21.7383 0C16.3672 0 10.918 0.273438 6.85547 0.742188C4.19922 1.05469 2.73438 2.5 2.73438 5.01953V35.1562ZM21.7383 37.6172C15.9961 37.6172 11.1328 37.3633 7.53906 36.9336C5.87891 36.7383 5.29297 35.8789 5.29297 34.375V5.80078C5.29297 4.31641 6.07422 3.41797 7.53906 3.24219C11.0547 2.8125 16.25 2.55859 21.7383 2.55859C27.168 2.55859 32.3633 2.8125 35.9375 3.24219C37.5977 3.4375 38.2031 4.29688 38.2031 5.80078V34.375C38.2031 35.8789 37.5977 36.7383 35.9375 36.9336C32.2852 37.3633 27.4219 37.6172 21.7383 37.6172ZM9.10156 26.6602C16.7188 27.8516 26.7188 27.8711 34.3945 26.6602C35.625 26.4453 36.2109 25.7617 36.2109 24.4531V7.65625C36.2109 6.19141 35.5469 5.39062 34.1406 5.25391C26.4258 4.47266 17.1094 4.49219 9.375 5.25391C7.98828 5.39062 7.28516 6.19141 7.28516 7.65625V24.4531C7.28516 25.7617 7.89062 26.4453 9.10156 26.6602ZM4.00391 18.6719V7.22656H1.85547C0.761719 7.22656 0 7.91016 0 8.94531V16.9727C0 18.0078 0.761719 18.6719 1.85547 18.6719H4.00391ZM39.4727 18.6719H41.6211C42.7148 18.6719 43.4766 18.0078 43.4766 16.9727V8.94531C43.4766 7.91016 42.7148 7.22656 41.6211 7.22656H39.4727V18.6719ZM10.5859 34.5898C11.9336 34.5898 12.9492 33.5547 12.9492 32.2266C12.9492 30.8789 11.9336 29.8633 10.5859 29.8633C9.23828 29.8633 8.22266 30.8789 8.22266 32.2266C8.22266 33.5547 9.23828 34.5898 10.5859 34.5898ZM17.0898 33.8867H26.3672C27.3633 33.8867 28.0664 33.1836 28.0664 32.1875C28.0664 31.1719 27.3633 30.4883 26.3672 30.4883H17.0898C16.0742 30.4883 15.3711 31.1719 15.3711 32.1875C15.3711 33.1836 16.0742 33.8867 17.0898 33.8867ZM32.8906 34.5898C34.2383 34.5898 35.2734 33.5547 35.2734 32.2266C35.2734 30.8789 34.2383 29.8633 32.8906 29.8633C31.5625 29.8633 30.5469 30.8789 30.5469 32.2266C30.5469 33.5547 31.5625 34.5898 32.8906 34.5898Z" fill="white" fill-opacity="0.38"/>
<path d="M15.0624 11.9517L15.0674 11.9353L15.0718 11.9187C15.5662 10.0452 16.3944 8.8528 17.3987 8.11749C18.4095 7.37741 19.7022 7.02468 21.2566 7.02468C23.1368 7.02468 24.7449 7.56465 25.8609 8.45742C26.9591 9.33585 27.62 10.5813 27.62 12.137C27.62 14.6715 26.1475 16.1283 23.4492 18.0584C20.0801 20.438 17.2732 23.2171 17.2732 27.5255V27.5282V27.5308V27.5335V27.5361V27.5388V27.5414V27.5441V27.5467V27.5493V27.552V27.5546V27.5573V27.5599V27.5626V27.5652V27.5679V27.5705V27.5732V27.5758V27.5785V27.5811V27.5838V27.5864V27.5891V27.5917V27.5944V27.597V27.5997V27.6023V27.605V27.6076V27.6102V27.6129V27.6155V27.6182V27.6208V27.6235V27.6261V27.6288V27.6314V27.6341V27.6367V27.6394V27.642V27.6447V27.6473V27.65V27.6526V27.6553V27.6579V27.6606V27.6632V27.6659V27.6685V27.6712V27.6738V27.6764V27.6791V27.6817V27.6844V27.687V27.6897V27.6923V27.695V27.6976V27.7003V27.7029V27.7056V27.7082V27.7109V27.7135V27.7162V27.7188V27.7215V27.7241V27.7268V27.7294V27.7321V27.7347V27.7374V27.74V27.7427V27.7453V27.7479V27.7506V27.7532V27.7559V27.7585V27.7612V27.7638V27.7665V27.7691V27.7718V27.7744V27.7771V27.7797V27.7824V27.785V27.7877V27.7903V27.793V27.7956V27.7983V27.8009V27.8036V27.8062V27.8089V27.8115V27.8141V27.8168V27.8194V27.8221V27.8247V27.8274V27.83V27.8327V27.8353V27.838V27.8406V27.8433V27.8459V27.8486V27.8512V27.8539V27.8565V27.8592V27.8618V27.8645V27.8671V27.8698V27.8724V27.8751V27.8777V27.8804V27.883V27.8856V27.8883V27.8909V27.8936V27.8962V27.8989V27.9015V27.9042V27.9068V27.9095V27.9121V27.9148V27.9174V27.9201V27.9227V27.9254V27.928V27.9307V27.9333V27.936V27.9386V27.9413V27.9439V27.9466V27.9492V27.9519V27.9545V27.9571V27.9598V27.9624V27.9651V27.9677V27.9704V27.973V27.9757V27.9783V27.981V27.9836V27.9863V27.9889V27.9916V27.9942V27.9969V27.9995V28.0022V28.0048V28.0075V28.0101V28.0128V28.0154V28.0181V28.0207V28.0234V28.026V28.0286V28.0313V28.0339V28.0366V28.0392V28.0419V28.0445V28.0472V28.0498V28.0525V28.0551V28.0578V28.0604V28.0631V28.0657V28.0684V28.071V28.0737V28.0763V28.079V28.0816V28.0843V28.0869V28.0896V28.0922V28.0949V28.0975V28.1002V28.1028V28.1054V28.1081V28.1107V28.1134V28.116V28.1187V28.1213V28.124V28.1266V28.1293V28.1319V28.1346V28.1372V28.1399V28.1425V28.1452V28.1478V28.1505V28.1531V28.1558V28.1584V28.1611V28.1637V28.1664V28.169V28.1717V28.1743V28.1769V28.1796V28.1822V28.1849V28.1875V28.1902V28.1928V28.1955V28.1981V28.2008V28.2034V28.2061V28.2087V28.2114V28.214V28.2167V28.2193V28.222V28.2246V28.2273V28.2299V28.2326V28.2352V28.2379V28.2405V28.2432V28.2458V28.2485V28.2511V28.2537V28.2564V28.259V28.2617V28.2643V28.267V28.2696V28.2723V28.2749V28.2776V28.2802V28.2829V28.2855V28.2882V28.2908V28.2935V28.2961V28.2988V28.3014V28.3041V28.3067V28.3094V28.312V28.3147V28.3173V28.32V28.3226V28.3252V28.3279V28.3305V28.3332V28.3358V28.3385V28.3411V28.3438V28.3464V28.3491V28.3517V28.3544V28.357V28.3597V28.3623V28.365V28.3676V28.3703V28.3729V28.3756V28.3782V28.3809V28.3835V28.3862V28.3888V28.3915V28.3941V28.3967V28.3994V28.402V28.4047V28.4073V28.41V28.4126V28.4153V28.4179V28.4206V28.4232V28.4259V28.4285V28.4312V28.4338V28.4365V28.4391V28.4418V28.4444V28.4471V28.4497V28.4524V28.455V28.4577V28.4603V28.463V28.4656V28.4683V28.4709V28.4735V28.4762V28.4788V28.4815V28.4841V28.4868V28.4894V28.4921V28.4947V28.4974V28.5V28.5027V28.5053V28.508V28.5106V28.5133V28.5159V28.5186V28.5212V28.5239V28.5265V28.5292V28.5318V28.5345V28.5371V28.5398V28.5424V28.545V28.5477V28.5503V28.553V28.5556V28.5583V28.5609V28.5636V28.5662V28.5689V28.5715V28.5742V28.5768V28.5795V28.5821V28.5848V28.5874V28.5901V28.5927V28.5954V28.598V28.6007V28.6033V28.606V28.6086V28.6112V28.6139V28.6165V28.6192V28.6218V28.6245V28.6271V28.6298V28.6324V28.6351V28.6377V28.6404V28.643V28.6457V28.6483V28.651V28.6536V28.6563V28.6589V28.6616V28.6642V28.6669V28.6695V28.6722V28.6748V28.6775V28.6801V28.6827V28.6854V28.688V28.6907V28.6933V28.696V28.6986V28.7013V28.7039V28.7066V28.7092V28.7119V28.7145V28.7172V28.7198V28.7225V28.7251V28.7278V28.7304V28.7331V28.7357V28.7384V28.741V28.7437V28.7463V28.7489V28.7516V28.7542V28.7569V28.7595V28.7622V28.7648V28.7675V28.7701V28.7728V28.7754V28.7781V28.7807V28.7834V28.786V28.7887V28.7913V28.794V28.7966V28.7993V28.8019V28.8046V28.8072V28.8099V28.8125V28.8151V28.8178V28.8204V28.8231V28.8257V28.8284V28.831V28.8337V28.8363V28.839V28.8416V28.8443V28.8469V28.8496V28.8522V28.8549V28.8575V28.8602V28.8628V28.8655V28.8681V28.8708V28.8734V28.8761V28.8787V28.8813C17.2732 29.7397 17.5043 30.5881 18.078 31.2346C18.6675 31.899 19.51 32.2274 20.4738 32.2274C21.4673 32.2274 22.3086 31.8687 22.8804 31.1742C23.4276 30.5095 23.632 29.6541 23.632 28.8168V28.8154V28.814V28.8126V28.8112V28.8098V28.8084V28.8071V28.8057V28.8043V28.8029V28.8015V28.8001V28.7987V28.7973V28.7959V28.7945V28.7931V28.7917V28.7903V28.7889V28.7875V28.7861V28.7847V28.7833V28.782V28.7806V28.7792V28.7778V28.7764V28.775V28.7736V28.7722V28.7707V28.7693V28.7679V28.7665V28.7651V28.7637V28.7623V28.7609V28.7595V28.7581V28.7567V28.7553V28.7539V28.7525V28.7511V28.7497V28.7483V28.7469V28.7454V28.744V28.7426V28.7412V28.7398V28.7384V28.737V28.7356V28.7342V28.7327V28.7313V28.7299V28.7285V28.7271V28.7257V28.7243V28.7228V28.7214V28.72V28.7186V28.7172V28.7158V28.7143V28.7129V28.7115V28.7101V28.7087V28.7072V28.7058V28.7044V28.703V28.7016V28.7001V28.6987V28.6973V28.6959V28.6945V28.693V28.6916V28.6902V28.6888V28.6873V28.6859V28.6845V28.6831V28.6816V28.6802V28.6788V28.6774V28.6759V28.6745V28.6731V28.6717V28.6702V28.6688V28.6674V28.6659V28.6645V28.6631V28.6617V28.6602V28.6588V28.6574V28.6559V28.6545V28.6531V28.6516V28.6502V28.6488V28.6473V28.6459V28.6445V28.643V28.6416V28.6402V28.6387V28.6373V28.6359V28.6344V28.633V28.6316V28.6301V28.6287V28.6273V28.6258V28.6244V28.623V28.6215V28.6201V28.6186V28.6172V28.6158V28.6143V28.6129V28.6115V28.61V28.6086V28.6071V28.6057V28.6043V28.6028V28.6014V28.5999V28.5985V28.5971V28.5956V28.5942V28.5927V28.5913V28.5899V28.5884V28.587V28.5855V28.5841V28.5827V28.5812V28.5798V28.5783V28.5769V28.5754V28.574V28.5726V28.5711V28.5697V28.5682V28.5668V28.5653V28.5639V28.5624V28.561V28.5596V28.5581V28.5567V28.5552V28.5538V28.5523V28.5509V28.5494V28.548V28.5465V28.5451V28.5437V28.5422V28.5408V28.5393V28.5379V28.5364V28.535V28.5335V28.5321V28.5306V28.5292V28.5277V28.5263V28.5248V28.5234V28.5219V28.5205V28.5191V28.5176V28.5162V28.5147V28.5133V28.5118V28.5104V28.5089V28.5075V28.506V28.5046V28.5031V28.5017V28.5002V28.4988V28.4973V28.4959V28.4944V28.493V28.4915V28.4901V28.4886V28.4872V28.4857V28.4843V28.4828V28.4814V28.4799V28.4785V28.477V28.4756V28.4741V28.4727V28.4712V28.4698V28.4683V28.4669V28.4654V28.464V28.4625V28.4611V28.4596V28.4582V28.4567V28.4553V28.4538V28.4524V28.4509V28.4495V28.448V28.4466V28.4451V28.4437V28.4422V28.4408V28.4393V28.4379V28.4364V28.435V28.4335V28.4321V28.4306V28.4292V28.4277V28.4263V28.4248V28.4234V28.4219V28.4205V28.419V28.4176V28.4161V28.4147V28.4132V28.4118V28.4103V28.4089V28.4074V28.406V28.4045V28.4031V28.4016V28.4002V28.3987V28.3973V28.3958V28.3944V28.3929V28.3915V28.39V28.3886V28.3871V28.3857V28.3843V28.3828V28.3814V28.3799V28.3785V28.377V28.3756V28.3741V28.3727V28.3712V28.3698V28.3683V28.3669V28.3654V28.364V28.3625V28.3611V28.3596V28.3582V28.3568V28.3553V28.3539V28.3524V28.351V28.3495V28.3481V28.3466V28.3452V28.3437V28.3423V28.3409V28.3394V28.338V28.3365V28.3351V28.3336V28.3322V28.3307V28.3293V28.3279V28.3264V28.325V28.3235V28.3221V28.3206V28.3192V28.3178V28.3163V28.3149V28.3134V28.312V28.3106V28.3091V28.3077V28.3062V28.3048V28.3034V28.3019V28.3005V28.299V28.2976V28.2962V28.2947V28.2933V28.2918V28.2904V28.289V28.2875V28.2861V28.2846V28.2832V28.2818V28.2803V28.2789V28.2775V28.276V28.2746V28.2732V28.2717V28.2703V28.2689V28.2674V28.266V28.2645V28.2631V28.2617V28.2602V28.2588V28.2574V28.2559V28.2545V28.2531V28.2516V28.2502V28.2488V28.2474V28.2459V28.2445V28.2431V28.2416V28.2402V28.2388V28.2373V28.2359V28.2345V28.2331V28.2316V28.2302V28.2288V28.2274V28.2259V28.2245V28.2231V28.2216V28.2202V28.2188V28.2174V28.2159V28.2145V28.2131V28.2117V28.2102V28.2088V28.2074V28.206V28.2046V28.2031V28.2017V28.2003V28.1989V28.1975V28.196V28.1946V28.1932V28.1918V28.1904V28.1889V28.1875V28.1861V28.1847V28.1833V28.1819V28.1804V28.179V28.1776V28.1762V28.1748V28.1734V28.1719V28.1705V28.1691V28.1677V28.1663V28.1649V28.1635V28.1621V28.1606V28.1592V28.1578V28.1564V28.155V28.1536V28.1522V28.1508V28.1494V28.148V28.1466V28.1452V28.1437V28.1423V28.1409V28.1395V28.1381V28.1367V28.1353V28.1339V28.1325V28.1311V28.1297V28.1283V28.1269V28.1255V28.1241V28.1227V28.1213V28.1199V28.1185V28.1171V28.1157V28.1143V28.1129V28.1115V28.1101V28.1087V28.1073V28.1059V28.1045V28.1032V28.1018V28.1004V28.099V28.0976V28.0962V28.0948V28.0934C23.6519 26.8104 23.8804 26.0239 24.4029 25.2931C24.9689 24.5014 25.9301 23.6995 27.6236 22.515C31.3945 19.9274 34 16.7788 34 12.1585C34 8.63804 32.5808 5.81369 30.2518 3.88742C27.9429 1.97777 24.8039 1 21.4047 1C16.3101 1 11.7069 3.46662 9.71815 8.05694C9.22242 9.18637 9 10.3119 9 11.2761C9 12.0731 9.22812 12.8575 9.77136 13.4536C10.3266 14.0629 11.1099 14.3638 11.989 14.3638C12.74 14.3638 13.4206 14.1342 13.97 13.6796C14.5097 13.2331 14.8608 12.6217 15.0624 11.9517ZM20.4738 44C22.7348 44 24.4995 42.1587 24.4995 39.9439C24.4995 37.7028 22.7302 35.8877 20.4738 35.8877C18.2597 35.8877 16.4692 37.7028 16.4692 39.9439C16.4692 42.1587 18.2551 44 20.4738 44Z" fill="white" fill-opacity="0.85" stroke="black" stroke-width="2"/>
</g>
<defs>
<clipPath id="clip0_12_11">
<rect width="44" height="46" fill="white"/>
</clipPath>
</defs>
</svg>
