<svg width="24" height="24" viewBox="0 0 24 24" fill="none" xmlns="http://www.w3.org/2000/svg">
    <g clip-path="url(#clip0_201_36)">
        <path
            d="M12 24C5.373 24 0 18.627 0 12C0 5.372 5.373 0 12 0C18.627 0 24 5.372 24 12C24 18.627 18.627 24 12 24Z"
            fill="#FFDD00" />
        <path
            d="M12 18.488C11.1478 18.4889 10.3038 18.3216 9.51648 17.9955C8.72915 17.6694 8.01396 17.1911 7.41196 16.588C7.50177 16.6699 7.57403 16.7692 7.62436 16.8799C7.6747 16.9906 7.70206 17.1103 7.70479 17.2318C7.70753 17.3534 7.68558 17.4742 7.64027 17.5871C7.59496 17.6999 7.52724 17.8024 7.44121 17.8883C7.35517 17.9742 7.2526 18.0417 7.1397 18.0868C7.02681 18.132 6.90593 18.1537 6.78439 18.1508C6.66284 18.1479 6.54315 18.1203 6.43256 18.0698C6.32196 18.0193 6.22276 17.9469 6.14096 17.857C5.98274 17.6864 5.89681 17.4611 5.90123 17.2285C5.90564 16.9959 6.00006 16.7741 6.16463 16.6096C6.3292 16.4452 6.55111 16.351 6.78372 16.3467C7.01632 16.3425 7.24152 16.4296 7.41196 16.588C6.24807 15.3607 5.60927 13.7266 5.63157 12.0354C5.65388 10.3442 6.33554 8.72847 7.53139 7.53236C8.72723 6.33625 10.3428 5.65424 12.034 5.63157C13.7252 5.60889 15.3585 6.24734 16.586 7.41096C16.4181 7.24256 16.3239 7.0144 16.3242 6.77662C16.3245 6.53885 16.4192 6.31091 16.5875 6.14291C16.7557 5.97491 16.9838 5.88059 17.2216 5.88068C17.4594 5.88078 17.6874 5.97527 17.8555 6.14341C18.0236 6.31154 18.1181 6.53955 18.1182 6.77733C18.1183 7.01511 18.024 7.24319 17.856 7.41146C17.688 7.57972 17.4601 7.6744 17.2223 7.67468C16.9845 7.67496 16.7564 7.58083 16.588 7.41296C17.4951 8.32037 18.1128 9.47639 18.363 10.7348C18.6132 11.9933 18.4846 13.2977 17.9936 14.4831C17.5025 15.6685 16.671 16.6816 15.6041 17.3945C14.5373 18.1074 13.283 18.4879 12 18.488ZM12 3.60596C7.37196 3.60596 3.60596 7.37196 3.60596 12C3.60596 16.628 7.37196 20.392 12 20.392C16.628 20.392 20.393 16.628 20.393 12C20.393 7.37196 16.628 3.60596 12 3.60596Z"
            fill="#1D1D1B" />
    </g>
    <defs>
        <clipPath id="clip0_201_36">
            <rect width="24" height="24" fill="white" />
        </clipPath>
    </defs>
</svg>
    