<svg width="30" height="30" viewBox="0 0 30 30" fill="none" xmlns="http://www.w3.org/2000/svg">
<path d="M25.8385 14.9081C25.8385 14.8959 25.8385 14.8837 25.8385 14.8716V14.8743C25.8376 14.8856 25.8385 14.8968 25.8385 14.9081Z" fill="white"/>
<path d="M28.6224 13.6123C28.5362 12.9725 28.334 12.3537 28.0258 11.7865C27.4104 10.6613 26.4132 9.79316 25.2141 9.3385C24.2211 8.96616 23.1395 8.89926 22.1081 9.14638C21.0768 9.3935 20.143 9.94336 19.4266 10.7253C18.9117 10.1637 18.282 9.71945 17.5803 9.42269C16.8785 9.12593 16.1212 8.9836 15.3596 9.00537C14.598 9.02714 13.85 9.21249 13.1664 9.54885C12.4827 9.88521 11.8794 10.3647 11.3975 10.9548C10.7204 10.2189 9.86978 9.66421 8.92331 9.34138C7.97684 9.01854 6.9646 8.93782 5.97893 9.10657C4.99326 9.27532 4.06551 9.68817 3.28034 10.3075C2.49516 10.9268 1.87754 11.7328 1.48381 12.652C1.09007 13.5713 0.932759 14.5745 1.02622 15.5701C1.11967 16.5657 1.46092 17.5221 2.01884 18.352C2.57676 19.182 3.33359 19.859 4.2203 20.3213C5.10701 20.7837 6.09537 21.0167 7.09523 20.9991C7.55761 20.9951 8.01803 20.9385 8.46757 20.8302C8.59989 20.798 8.72943 20.7553 8.85495 20.7026C8.67256 20.7761 8.47672 20.8104 8.2802 20.8032C8.08368 20.796 7.89088 20.7474 7.71437 20.6607C7.53786 20.574 7.3816 20.4511 7.25576 20.3C7.12993 20.1489 7.03734 19.9729 6.98404 19.7836C6.93074 19.5943 6.91793 19.3959 6.94643 19.2014C6.97493 19.0068 7.0441 18.8204 7.14944 18.6543C7.25479 18.4883 7.39393 18.3463 7.55782 18.2376C7.72171 18.1289 7.90666 18.056 8.10062 18.0235C7.92621 18.0465 7.75317 18.0891 7.56798 18.1233C6.75432 18.2822 5.91076 18.1181 5.21602 17.6658C4.52127 17.2134 4.02994 16.5084 3.84609 15.7C3.66225 14.8916 3.80034 14.0434 4.23112 13.3351C4.6619 12.6267 5.35151 12.114 6.15386 11.9053C6.84917 11.718 7.58749 11.7726 8.24772 12.06C8.95119 12.3927 9.53619 12.9324 9.92437 13.6068C10.0221 13.7705 10.1057 13.9423 10.1741 14.1204C10.2283 14.3007 10.295 14.4771 10.3737 14.6482C10.5052 14.889 10.705 15.0855 10.9479 15.213C11.1909 15.3405 11.4661 15.3933 11.739 15.3647C12.0118 15.3361 12.2701 15.2275 12.4814 15.0524C12.6926 14.8773 12.8473 14.6437 12.9261 14.3808C12.9735 14.1857 13.0109 13.9882 13.0381 13.7892C13.1113 13.4414 13.258 13.1133 13.4684 12.8267C13.7634 12.424 14.1713 12.1178 14.6404 11.947C15.1095 11.7762 15.6187 11.7484 16.1037 11.8671C16.5886 11.9858 17.0274 12.2458 17.3645 12.614C17.7016 12.9822 17.922 13.4421 17.9976 13.9356C18.0178 14.2743 18.1364 14.5997 18.3388 14.8719C18.4632 15.0203 18.617 15.1412 18.7906 15.227C18.9642 15.3127 19.1537 15.3615 19.3471 15.3701C19.5405 15.3787 19.7336 15.3471 19.9141 15.2771C20.0946 15.2072 20.2586 15.1004 20.3957 14.9637C20.6367 14.7109 20.7821 14.382 20.807 14.0336C20.8951 13.3805 21.2296 12.7858 21.742 12.3713C22.2544 11.9569 22.9058 11.7539 23.5629 11.8041C24.2068 11.8679 24.8019 12.1754 25.2265 12.6635C25.6512 13.1517 25.8732 13.7837 25.8472 14.4302C25.8415 14.5844 25.8332 14.7285 25.8378 14.8724C25.8429 14.5021 25.9936 14.1488 26.2574 13.8889C26.5212 13.629 26.8767 13.4834 27.247 13.4838C27.6173 13.4841 27.9725 13.6304 28.2358 13.8908C28.499 14.1512 28.6491 14.5049 28.6534 14.8752V14.8814C28.658 14.8242 28.6615 14.7666 28.6638 14.7097C28.6815 14.3434 28.6677 13.9762 28.6224 13.6123Z" fill="#FFDD00"/>
<path d="M28.6534 14.8743C28.6535 15.1529 28.5709 15.4252 28.4162 15.6568C28.2615 15.8884 28.0416 16.0689 27.7843 16.1755C27.527 16.2821 27.2438 16.31 26.9706 16.2557C26.6975 16.2014 26.4465 16.0672 26.2496 15.8703C26.0526 15.6733 25.9185 15.4224 25.8642 15.1492C25.8099 14.8761 25.8378 14.5929 25.9444 14.3356C26.051 14.0783 26.2315 13.8584 26.4631 13.7037C26.6947 13.5489 26.967 13.4664 27.2455 13.4664C27.6189 13.4665 27.977 13.6148 28.241 13.8789C28.505 14.1429 28.6534 14.501 28.6534 14.8743Z" fill="black"/>
<path d="M9.73116 19.4021C9.73116 19.679 9.64906 19.9496 9.49524 20.1798C9.34142 20.41 9.12279 20.5895 8.86699 20.6954C8.6112 20.8014 8.32973 20.8291 8.05818 20.7751C7.78663 20.7211 7.53719 20.5877 7.34141 20.3919C7.14563 20.1962 7.01231 19.9467 6.95829 19.6752C6.90428 19.4036 6.93201 19.1222 7.03796 18.8664C7.14391 18.6106 7.32334 18.3919 7.55355 18.2381C7.78376 18.0843 8.05441 18.0022 8.33128 18.0022C8.70255 18.0022 9.05862 18.1497 9.32115 18.4122C9.58368 18.6747 9.73116 19.0308 9.73116 19.4021Z" fill="black"/>
</svg>
